<svg width="38" height="37" viewBox="0 0 38 37" fill="none" xmlns="http://www.w3.org/2000/svg">
<path d="M37.1163 9.56498C37.1163 3.58687 33.2695 1.23369e-06 25.5239 1.23369e-06H0V11.1245H5.26684C6.72238 11.1245 6.95319 11.5923 6.95319 13.0999V23.2887C6.95319 24.7962 6.72238 25.264 5.26684 25.264H0V36.3885H25.7839C34.2052 36.3885 38 32.5417 38 26.1997C38 21.8331 35.4008 18.1943 29.0068 18.1943C35.2449 18.1943 37.1163 13.7757 37.1163 9.56498ZM13.4118 16.3319C11.9042 16.3319 11.4364 16.2458 11.4364 14.7903V13.0999C11.4364 11.5923 12.1642 11.1245 13.6197 11.1245H24.5882C27.8112 11.1245 29.0068 11.8247 29.0068 13.7481C29.0068 16.1914 26.9795 16.3319 23.0807 16.3319H13.4118ZM23.3926 20.3779C27.3953 20.3779 29.9945 20.1985 29.9945 22.6418C29.9945 24.6691 28.6949 25.264 25.5759 25.264H13.6197C12.1642 25.264 11.4364 24.7962 11.4364 23.2887V22.093C11.4364 20.6375 11.9042 20.3779 13.4118 20.3779H23.3926Z" fill="#E7DBD4"/>
</svg>
