<svg width="46" height="33" viewBox="0 0 46 33" fill="none" xmlns="http://www.w3.org/2000/svg">
<rect x="23" y="2.12132" width="19.787" height="19.787" transform="rotate(45 23 2.12132)" stroke="#282B2E" stroke-width="3"/>
<path d="M3.82657 20.1628C4.34608 20.1628 4.81325 20.0756 5.22809 19.9011C5.64293 19.7267 5.98216 19.4805 6.24579 19.1626C6.51331 18.8447 6.68389 18.4744 6.75755 18.0518L6.75174 18.0344H5.74567L5.73403 18.046C5.66425 18.3019 5.54019 18.5248 5.36185 18.7148C5.18351 18.9009 4.96252 19.0463 4.69888 19.1509C4.43913 19.2517 4.14836 19.3021 3.82657 19.3021C3.38459 19.3021 3.00077 19.1936 2.67511 18.9765C2.35332 18.7555 2.10519 18.4434 1.93073 18.0402C1.75627 17.6331 1.66903 17.1543 1.66903 16.6038V16.5921C1.66903 16.0377 1.75627 15.5589 1.93073 15.1557C2.10519 14.7525 2.35332 14.4424 2.67511 14.2253C3.00077 14.0043 3.38265 13.8938 3.82075 13.8938C4.14254 13.8938 4.43331 13.9519 4.69307 14.0682C4.9567 14.1807 5.17769 14.3416 5.35603 14.5509C5.53825 14.7564 5.66619 15.0026 5.73985 15.2895L5.74567 15.3011H6.75174L6.75755 15.2837C6.69165 14.8417 6.523 14.4521 6.25161 14.1148C5.9841 13.7736 5.64099 13.508 5.22228 13.318C4.80356 13.1281 4.33639 13.0331 3.82075 13.0331C3.16554 13.0331 2.59951 13.1785 2.12264 13.4692C1.64577 13.7561 1.27746 14.1671 1.0177 14.7021C0.761824 15.2333 0.633884 15.8652 0.633884 16.598V16.6038C0.633884 17.3326 0.763763 17.9646 1.02352 18.4996C1.28328 19.0308 1.65159 19.4417 2.12846 19.7325C2.60532 20.0194 3.17136 20.1628 3.82657 20.1628ZM10.8056 20.1628C11.4918 20.1628 12.0811 20.0174 12.5735 19.7267C13.0697 19.432 13.4497 19.0191 13.7133 18.488C13.9808 17.953 14.1146 17.323 14.1146 16.598V16.5921C14.1146 15.8633 13.9808 15.2333 13.7133 14.7021C13.4458 14.171 13.0639 13.76 12.5677 13.4692C12.0753 13.1785 11.4879 13.0331 10.8056 13.0331C10.1271 13.0331 9.53974 13.1785 9.04349 13.4692C8.55112 13.7561 8.16924 14.1671 7.89785 14.7021C7.63034 15.2333 7.49658 15.8633 7.49658 16.5921V16.598C7.49658 17.323 7.6284 17.953 7.89203 18.488C8.15954 19.023 8.53949 19.4359 9.03186 19.7267C9.52424 20.0174 10.1155 20.1628 10.8056 20.1628ZM10.8114 19.3021C10.3384 19.3021 9.93132 19.1917 9.59014 18.9707C9.24897 18.7458 8.98728 18.4318 8.80506 18.0286C8.62284 17.6215 8.53173 17.1446 8.53173 16.598V16.5863C8.53173 16.0358 8.62478 15.5589 8.81087 15.1557C8.99697 14.7525 9.2606 14.4404 9.60178 14.2194C9.94295 13.9985 10.3462 13.888 10.8114 13.888C11.2766 13.888 11.6798 13.9985 12.021 14.2194C12.3622 14.4404 12.6239 14.7525 12.8061 15.1557C12.9922 15.5589 13.0852 16.0358 13.0852 16.5863V16.598C13.0852 17.1446 12.9922 17.6215 12.8061 18.0286C12.6239 18.4318 12.3622 18.7458 12.021 18.9707C11.6837 19.1917 11.2805 19.3021 10.8114 19.3021ZM15.1851 20H16.1795V14.8882H16.6913L16.0051 14.5567L20.0177 20H20.9598V13.1959H19.9654V18.3193H19.4536L20.1398 18.6508L16.1272 13.1959H15.1851V20ZM24.1355 20H25.1532V14.0333H27.4212V13.1959H21.8675V14.0333H24.1355V20ZM26.9332 20H27.9974L30.0212 14.3416H30.3353V13.1959H29.5327L26.9332 20ZM28.1545 18.1042H31.9868L31.6903 17.3191H28.451L28.1545 18.1042ZM32.1322 20H33.1965L30.5911 13.1959H30.1026V14.3416L32.1322 20ZM36.5466 20.1628C37.0661 20.1628 37.5333 20.0756 37.9481 19.9011C38.363 19.7267 38.7022 19.4805 38.9658 19.1626C39.2334 18.8447 39.4039 18.4744 39.4776 18.0518L39.4718 18.0344H38.4657L38.4541 18.046C38.3843 18.3019 38.2602 18.5248 38.0819 18.7148C37.9036 18.9009 37.6826 19.0463 37.4189 19.1509C37.1592 19.2517 36.8684 19.3021 36.5466 19.3021C36.1046 19.3021 35.7208 19.1936 35.3952 18.9765C35.0734 18.7555 34.8252 18.4434 34.6508 18.0402C34.4763 17.6331 34.3891 17.1543 34.3891 16.6038V16.5921C34.3891 16.0377 34.4763 15.5589 34.6508 15.1557C34.8252 14.7525 35.0734 14.4424 35.3952 14.2253C35.7208 14.0043 36.1027 13.8938 36.5408 13.8938C36.8626 13.8938 37.1534 13.9519 37.4131 14.0682C37.6768 14.1807 37.8977 14.3416 38.0761 14.5509C38.2583 14.7564 38.3862 15.0026 38.4599 15.2895L38.4657 15.3011H39.4718L39.4776 15.2837C39.4117 14.8417 39.2431 14.4521 38.9717 14.1148C38.7042 13.7736 38.361 13.508 37.9423 13.318C37.5236 13.1281 37.0564 13.0331 36.5408 13.0331C35.8856 13.0331 35.3196 13.1785 34.8427 13.4692C34.3658 13.7561 33.9975 14.1671 33.7378 14.7021C33.4819 15.2333 33.3539 15.8652 33.3539 16.598V16.6038C33.3539 17.3326 33.4838 17.9646 33.7436 18.4996C34.0033 19.0308 34.3716 19.4417 34.8485 19.7325C35.3254 20.0194 35.8914 20.1628 36.5466 20.1628ZM42.0718 20H43.0895V14.0333H45.3575V13.1959H39.8037V14.0333H42.0718V20Z" fill="white"/>
</svg>
