<svg width="2678" height="1015" viewBox="0 0 2678 1015" fill="none" xmlns="http://www.w3.org/2000/svg">
<rect width="2678" height="1015" fill="#EB6043"/>
<path d="M1077.94 528.972C1077.93 505.608 1068.84 483.164 1052.59 466.378C1036.35 449.592 1014.23 439.777 990.892 439.003C1007.09 421.988 1015.99 399.312 1015.71 375.816C1015.42 352.321 1005.96 329.868 989.36 313.253C972.756 296.638 950.317 287.177 926.837 286.891C903.356 286.604 880.694 295.515 863.69 311.72C862.834 288.431 852.986 266.382 836.218 250.209C819.45 234.037 797.068 225 773.778 225C750.489 225 728.107 234.037 711.339 250.209C694.571 266.382 684.723 288.431 683.867 311.72C666.862 295.515 644.2 286.604 620.72 286.891C597.239 287.177 574.801 296.638 558.197 313.253C541.592 329.868 532.137 352.321 531.851 375.816C531.565 399.312 540.47 421.988 556.664 439.003C533.391 439.86 511.356 449.714 495.193 466.493C479.031 483.272 470 505.668 470 528.972C470 552.277 479.031 574.673 495.193 591.452C511.356 608.231 533.391 618.085 556.664 618.941C540.47 635.957 531.565 658.633 531.851 682.129C532.137 705.624 541.592 728.077 558.197 744.692C574.801 761.307 597.239 770.768 620.72 771.054C644.2 771.341 666.862 762.43 683.867 746.225C684.723 769.513 694.571 791.562 711.339 807.735C728.107 823.908 750.489 832.945 773.778 832.945C797.068 832.945 819.45 823.908 836.218 807.735C852.986 791.562 862.834 769.513 863.69 746.225C880.694 762.43 903.356 771.341 926.837 771.054C950.317 770.768 972.756 761.307 989.36 744.692C1005.96 728.077 1015.42 705.624 1015.71 682.129C1015.99 658.633 1007.09 635.957 990.892 618.941C1014.23 618.168 1036.35 608.352 1052.59 591.566C1068.84 574.78 1077.93 552.337 1077.94 528.972V528.972ZM925.192 305.389C934.656 305.352 944.032 307.201 952.774 310.828C961.515 314.454 969.448 319.786 976.11 326.512C989.576 340.032 997.137 358.343 997.137 377.431C997.137 396.52 989.576 414.83 976.11 428.351C969.908 434.762 962.694 440.109 954.757 444.177C951.959 445.212 949.282 446.308 946.788 447.525C930.424 453.004 914.607 450.508 898.122 447.891C889.209 446.206 880.178 445.229 871.112 444.969C866.184 444.934 861.267 445.445 856.451 446.491C858.602 432.525 858.128 418.28 855.052 404.489C852.436 388.053 849.942 372.227 855.417 355.791C856.633 353.295 857.728 350.617 858.762 347.817C862.828 339.875 868.172 332.657 874.579 326.451C881.208 319.77 889.093 314.468 897.78 310.853C906.467 307.239 915.784 305.381 925.192 305.389V305.389ZM710.512 407.228C711.94 399.173 712.915 391.044 713.432 382.879C719.537 388.196 725.913 393.195 732.533 397.854C750.783 410.941 764.775 421.229 764.775 444.482C765.259 449.553 764.116 454.646 761.513 459.024C758.91 463.402 754.981 466.837 750.297 468.831C745.296 470.77 739.843 471.228 734.589 470.148C729.335 469.069 724.503 466.498 720.671 462.743C704.307 446.673 706.862 429.325 710.512 407.228ZM834.125 382.879C834.642 391.044 835.617 399.173 837.045 407.228C840.512 429.264 843.128 446.612 826.886 463.048C823.639 466.93 819.246 469.681 814.338 470.906C809.43 472.131 804.26 471.767 799.572 469.866C794.653 467.752 790.451 464.259 787.472 459.809C784.493 455.359 782.864 450.142 782.782 444.786C782.782 421.533 797.017 411.246 815.023 398.158C821.642 393.519 828.018 388.541 834.125 383.244V382.879ZM707.957 475.831C711.836 479.08 714.586 483.476 715.81 488.387C717.034 493.298 716.67 498.471 714.77 503.163C712.658 508.084 709.168 512.289 704.72 515.27C700.273 518.251 695.059 519.881 689.707 519.963C666.468 519.963 656.188 505.719 643.108 487.701C638.452 481.076 633.457 474.697 628.143 468.587C636.303 468.07 644.427 467.095 652.477 465.665C674.194 462.013 691.532 459.456 707.957 475.831ZM689.707 537.981C694.775 537.497 699.865 538.641 704.24 541.245C708.615 543.85 712.047 547.781 714.04 552.469C715.978 557.473 716.436 562.93 715.357 568.187C714.278 573.444 711.709 578.279 707.957 582.114V582.114C691.532 598.488 674.194 595.932 652.112 592.279C644.062 590.85 635.938 589.875 627.778 589.357C633.092 583.248 638.087 576.868 642.743 570.244C656.188 552.225 666.468 537.981 689.707 537.981V537.981ZM720.671 594.836C723.917 590.954 728.311 588.203 733.219 586.978C738.127 585.753 743.297 586.117 747.985 588.018C752.903 590.132 757.106 593.624 760.085 598.074C763.064 602.525 764.693 607.742 764.775 613.098C764.775 636.351 750.54 646.638 732.533 659.726C725.913 664.385 719.537 669.383 713.432 674.7C712.915 666.536 711.94 658.407 710.512 650.351C706.862 628.62 704.307 611.271 720.671 594.836V594.836ZM837.045 650.717C835.617 658.772 834.642 666.901 834.125 675.065C828.02 669.748 821.644 664.75 815.023 660.091C796.773 647.003 782.782 636.716 782.782 613.463C782.298 608.392 783.44 603.298 786.044 598.92C788.647 594.543 792.575 591.108 797.26 589.114C802.261 587.174 807.714 586.717 812.968 587.796C818.222 588.876 823.053 591.447 826.886 595.201C843.25 611.271 840.695 628.62 837.045 650.717ZM839.6 582.175C835.721 578.926 832.971 574.53 831.747 569.619C830.523 564.707 830.887 559.534 832.787 554.843C834.899 549.921 838.389 545.717 842.836 542.735C847.284 539.754 852.498 538.124 857.85 538.042C881.088 538.042 891.369 552.286 904.448 570.305C909.104 576.929 914.099 583.309 919.413 589.418C911.254 589.935 903.13 590.911 895.08 592.34C873.362 595.932 856.025 598.488 839.6 582.114V582.175ZM857.85 520.024C852.782 520.508 847.692 519.365 843.317 516.76C838.942 514.155 835.509 510.224 833.517 505.537C831.578 500.533 831.121 495.076 832.2 489.819C833.279 484.562 835.848 479.727 839.6 475.892V475.892C856.025 459.456 873.362 462.013 895.445 465.665C903.495 467.095 911.619 468.07 919.778 468.587C914.464 474.697 909.469 481.076 904.813 487.701C891.369 505.719 881.088 519.963 857.85 519.963V520.024ZM773.778 242.873C792.813 242.905 811.062 250.469 824.545 263.914C838.027 277.36 845.648 295.595 845.744 314.642C845.899 323.562 844.583 332.446 841.851 340.938C840.621 343.56 839.525 346.242 838.566 348.973C830.84 364.618 817.882 373.87 804.195 383.61C792.374 391.205 782.061 400.926 773.778 412.28C765.496 400.926 755.183 391.205 743.362 383.61C729.918 373.87 716.96 364.435 709.234 348.973C708.275 346.242 707.179 343.56 705.949 340.938C703.217 332.446 701.901 323.562 702.056 314.642C702.152 295.637 709.739 277.438 723.169 264C736.599 250.561 754.786 242.969 773.778 242.873V242.873ZM571.447 326.512C578.125 319.818 586.058 314.507 594.789 310.884C603.521 307.26 612.881 305.395 622.334 305.395C631.787 305.395 641.147 307.26 649.879 310.884C658.61 314.507 666.542 319.818 673.221 326.512V326.512C679.628 332.718 684.972 339.936 689.038 347.878C690.072 350.678 691.167 353.356 692.383 355.852C697.858 372.227 695.364 388.053 692.748 404.55C689.672 418.341 689.198 432.586 691.349 446.551C677.393 444.399 663.157 444.874 649.374 447.952C632.949 450.569 617.193 453.065 600.708 447.586C598.214 446.369 595.537 445.273 592.739 444.238C584.802 440.17 577.588 434.823 571.386 428.412C564.696 421.729 559.389 413.792 555.768 405.054C552.147 396.317 550.283 386.951 550.283 377.492C550.283 368.033 552.147 358.667 555.768 349.93C559.389 341.192 564.696 333.255 571.386 326.573L571.447 326.512ZM487.862 528.972C487.894 509.926 495.453 491.664 508.89 478.174C522.326 464.683 540.55 457.057 559.584 456.961C568.499 456.806 577.378 458.122 585.864 460.856C588.484 462.087 591.164 463.184 593.894 464.144C609.346 471.874 618.775 484.84 628.508 498.293C636.099 510.121 645.814 520.441 657.161 528.729C645.814 537.017 636.099 547.336 628.508 559.165C618.775 572.618 609.346 585.583 593.894 593.314C591.164 594.274 588.484 595.371 585.864 596.601C577.378 599.336 568.499 600.652 559.584 600.497C540.634 600.402 522.483 592.843 509.06 579.457C495.637 566.071 488.022 547.935 487.862 528.972V528.972ZM571.447 731.433C564.757 724.75 559.45 716.813 555.829 708.076C552.208 699.338 550.344 689.972 550.344 680.513C550.344 671.055 552.208 661.689 555.829 652.951C559.45 644.214 564.757 636.277 571.447 629.594V629.594C577.607 623.188 584.78 617.841 592.678 613.767C595.457 612.81 598.179 611.692 600.829 610.419C607.661 608.18 614.811 607.07 621.999 607.132C631.186 607.391 640.339 608.368 649.374 610.054C663.157 613.132 677.393 613.607 691.349 611.454C689.198 625.42 689.672 639.665 692.748 653.456C695.364 669.891 697.858 685.718 692.383 702.154C691.167 704.649 690.072 707.328 689.038 710.128C684.972 718.069 679.628 725.288 673.221 731.494C659.701 744.961 641.398 752.516 622.321 752.504C603.245 752.493 584.951 744.916 571.447 731.433V731.433ZM976.11 731.433C962.598 744.908 944.299 752.474 925.223 752.474C906.146 752.474 887.848 744.908 874.336 731.433C867.91 725.243 862.564 718.021 858.519 710.067C857.485 707.267 856.39 704.588 855.173 702.093C849.698 685.718 852.192 669.891 854.808 653.395C857.884 639.604 858.359 625.359 856.207 611.393C870.164 613.546 884.4 613.071 898.182 609.993C914.607 607.376 930.424 604.88 946.849 610.358C949.343 611.576 952.02 612.672 954.818 613.706C962.755 617.775 969.968 623.122 976.171 629.533C989.647 643.064 997.21 661.392 997.198 680.496C997.187 699.599 989.603 717.918 976.11 731.433V731.433ZM987.972 600.984C979.058 601.139 970.179 599.823 961.692 597.088C959.073 595.858 956.393 594.761 953.662 593.801C938.028 586.07 928.782 573.105 919.048 559.408C911.457 547.58 901.743 537.26 890.396 528.972C901.743 520.684 911.457 510.365 919.048 498.536C928.782 485.084 938.211 472.118 953.662 464.387C956.393 463.427 959.073 462.33 961.692 461.1C970.179 458.366 979.058 457.049 987.972 457.204C1007.06 457.204 1025.36 464.791 1038.86 478.296C1052.36 491.801 1059.94 510.117 1059.94 529.216C1059.94 548.315 1052.36 566.631 1038.86 580.136C1025.36 593.641 1007.06 601.228 987.972 601.228V600.984Z" fill="#F69366" fill-opacity="0.7"/>
<path d="M1328.06 454.876H1325.86V439.021H1328.06V454.876Z" fill="white"/>
<path d="M1330.59 443.704H1332.5V446.14C1333.43 444.28 1335.07 443.348 1337.4 443.345C1339 443.345 1340.23 443.789 1341.07 444.666C1341.91 445.543 1342.32 446.833 1342.32 448.529V454.871H1340.35V448.82C1340.35 446.318 1339.16 445.068 1336.78 445.068C1336.22 445.041 1335.65 445.131 1335.12 445.333C1334.6 445.535 1334.12 445.844 1333.71 446.241C1333.32 446.667 1333.02 447.168 1332.83 447.712C1332.63 448.257 1332.55 448.835 1332.58 449.412V454.908H1330.59V443.704Z" fill="white"/>
<path d="M1350.56 453.956C1349.9 453.505 1349.35 452.929 1348.93 452.262C1348.51 451.595 1348.22 450.85 1348.09 450.071L1350.36 449.691C1350.6 450.815 1351.25 451.812 1352.18 452.492C1353.31 453.23 1354.65 453.588 1356 453.512C1357.13 453.572 1358.25 453.34 1359.26 452.841C1359.63 452.635 1359.94 452.327 1360.15 451.953C1360.36 451.578 1360.45 451.153 1360.43 450.727C1360.46 450.365 1360.4 450.001 1360.25 449.668C1360.11 449.335 1359.88 449.041 1359.6 448.814C1358.79 448.317 1357.88 448.015 1356.94 447.931L1353.46 447.482C1352.22 447.358 1351.04 446.879 1350.06 446.103C1349.66 445.72 1349.35 445.255 1349.15 444.74C1348.95 444.225 1348.86 443.673 1348.9 443.122C1348.88 442.465 1349.02 441.814 1349.33 441.23C1349.63 440.646 1350.08 440.148 1350.62 439.782C1351.78 438.975 1353.37 438.57 1355.41 438.567C1357.1 438.491 1358.78 438.894 1360.25 439.729C1360.87 440.117 1361.39 440.627 1361.8 441.226C1362.21 441.825 1362.49 442.501 1362.62 443.212L1360.42 443.74C1360.21 442.708 1359.62 441.791 1358.77 441.167C1357.74 440.546 1356.54 440.251 1355.34 440.321C1354.27 440.262 1353.2 440.498 1352.25 441.003C1351.91 441.192 1351.62 441.472 1351.42 441.813C1351.23 442.153 1351.13 442.54 1351.14 442.932C1351.11 443.265 1351.17 443.599 1351.29 443.908C1351.42 444.218 1351.61 444.495 1351.86 444.718C1352.58 445.219 1353.43 445.516 1354.3 445.579L1357.72 446.071C1359.06 446.206 1360.34 446.693 1361.44 447.482C1361.87 447.863 1362.2 448.338 1362.42 448.868C1362.63 449.399 1362.72 449.971 1362.68 450.542C1362.7 451.217 1362.55 451.886 1362.25 452.491C1361.95 453.096 1361.5 453.619 1360.95 454.014C1359.8 454.888 1358.12 455.323 1355.92 455.319C1353.65 455.319 1351.87 454.865 1350.56 453.956Z" fill="white"/>
<path d="M1376.59 449.868H1366.21C1366.21 450.371 1366.31 450.868 1366.53 451.325C1366.74 451.782 1367.05 452.186 1367.44 452.51C1368.35 453.205 1369.48 453.554 1370.63 453.493C1371.51 453.52 1372.39 453.328 1373.18 452.933C1373.87 452.559 1374.43 451.981 1374.77 451.279L1376.45 452.05C1375.36 454.164 1373.39 455.221 1370.54 455.221C1368.56 455.221 1367.01 454.716 1365.88 453.704C1364.75 452.693 1364.18 451.261 1364.18 449.408C1364.18 447.505 1364.75 446.015 1365.88 444.953C1367.13 443.848 1368.78 443.278 1370.45 443.368C1372.39 443.368 1373.89 443.833 1374.97 444.773C1375.51 445.277 1375.94 445.895 1376.22 446.582C1376.49 447.269 1376.61 448.009 1376.56 448.747L1376.59 449.868ZM1374.54 448.166C1374.56 447.7 1374.46 447.236 1374.26 446.814C1374.06 446.391 1373.77 446.022 1373.4 445.735C1372.54 445.119 1371.49 444.812 1370.43 444.863C1369.35 444.81 1368.29 445.142 1367.43 445.799C1367.05 446.111 1366.75 446.501 1366.54 446.941C1366.33 447.382 1366.21 447.863 1366.21 448.351H1374.54L1374.54 448.166Z" fill="white"/>
<path d="M1379.57 454.315C1379.18 454.047 1378.86 453.685 1378.65 453.264C1378.43 452.842 1378.33 452.373 1378.34 451.9C1378.33 451.392 1378.46 450.89 1378.7 450.441C1378.94 449.996 1379.3 449.623 1379.73 449.358C1380.23 449.068 1380.77 448.85 1381.33 448.708C1382.18 448.519 1383.04 448.401 1383.91 448.354L1388.09 448.042V447.825C1388.09 445.919 1386.93 444.966 1384.61 444.966C1383.7 444.921 1382.8 445.13 1382 445.569C1381.7 445.752 1381.43 446.003 1381.24 446.303C1381.05 446.603 1380.92 446.943 1380.88 447.297H1378.72C1378.78 446.718 1378.97 446.16 1379.28 445.666C1379.58 445.172 1380 444.755 1380.5 444.448C1381.73 443.68 1383.16 443.302 1384.61 443.365C1386.45 443.365 1387.8 443.746 1388.73 444.512C1389.67 445.278 1390.09 446.451 1390.09 448.032V450.996C1390.09 451.937 1390.09 452.693 1390.17 453.263C1390.22 453.81 1390.3 454.352 1390.43 454.886H1388.36C1388.26 454.168 1388.19 453.444 1388.18 452.719C1387.75 453.54 1387.05 454.195 1386.2 454.585C1385.17 455.041 1384.04 455.259 1382.9 455.224C1381.72 455.281 1380.56 454.963 1379.57 454.315ZM1386.83 452.64C1387.24 452.333 1387.57 451.934 1387.79 451.474C1388.02 451.014 1388.13 450.508 1388.12 449.997V449.411L1383.56 449.839C1382.71 449.87 1381.89 450.09 1381.15 450.484C1380.92 450.632 1380.74 450.835 1380.62 451.074C1380.5 451.313 1380.44 451.579 1380.45 451.847C1380.45 452.116 1380.52 452.381 1380.65 452.614C1380.79 452.846 1380.99 453.036 1381.23 453.163C1381.91 453.515 1382.67 453.678 1383.44 453.633C1384.65 453.695 1385.84 453.345 1386.83 452.64V452.64Z" fill="white"/>
<path d="M1396.46 444.263C1397.17 443.684 1398.07 443.375 1399 443.391C1399.28 443.389 1399.57 443.412 1399.85 443.46V445.378C1399.62 445.352 1399.39 445.338 1399.16 445.336C1398.57 445.323 1397.99 445.412 1397.43 445.6C1396.98 445.773 1396.56 446.05 1396.23 446.409C1395.77 446.865 1395.45 447.442 1395.3 448.074C1395.13 448.817 1395.05 449.578 1395.06 450.341V454.875H1393.09V443.703H1394.91V446.541C1395.19 445.645 1395.72 444.852 1396.46 444.263V444.263Z" fill="white"/>
<path d="M1403.34 454.485C1402.41 454.027 1401.64 453.308 1401.12 452.418C1400.59 451.461 1400.32 450.382 1400.35 449.29C1400.32 448.194 1400.59 447.11 1401.12 446.15C1401.64 445.264 1402.41 444.55 1403.34 444.095C1404.39 443.59 1405.54 443.342 1406.71 443.371C1408.11 443.305 1409.49 443.675 1410.67 444.428C1411.69 445.168 1412.37 446.277 1412.57 447.514L1410.48 447.757C1410.32 446.955 1409.86 446.242 1409.2 445.759C1408.45 445.273 1407.56 445.035 1406.66 445.078C1406.09 445.044 1405.53 445.124 1405 445.314C1404.46 445.504 1403.98 445.799 1403.56 446.182C1403.18 446.599 1402.88 447.088 1402.7 447.62C1402.51 448.152 1402.43 448.716 1402.46 449.279C1402.43 449.848 1402.51 450.418 1402.7 450.955C1402.89 451.491 1403.19 451.984 1403.58 452.402C1404 452.788 1404.49 453.086 1405.03 453.279C1405.57 453.471 1406.14 453.554 1406.71 453.523C1408.76 453.523 1410.06 452.642 1410.59 450.88L1412.55 451.192C1412.3 452.399 1411.59 453.464 1410.57 454.162C1409.41 454.908 1408.04 455.277 1406.66 455.219C1405.51 455.239 1404.37 454.987 1403.34 454.485V454.485Z" fill="white"/>
<path d="M1414.86 438.679H1416.83V446.077C1417.25 445.231 1417.91 444.528 1418.73 444.059C1419.61 443.571 1420.61 443.326 1421.62 443.35C1423.25 443.35 1424.49 443.821 1425.34 444.751C1426.19 445.681 1426.59 447.044 1426.59 448.847V454.876H1424.62V449.063C1424.7 447.993 1424.37 446.933 1423.7 446.093C1423.35 445.744 1422.92 445.473 1422.46 445.3C1421.99 445.127 1421.5 445.055 1421 445.089C1420.44 445.061 1419.88 445.15 1419.36 445.35C1418.84 445.55 1418.36 445.858 1417.97 446.252C1417.58 446.68 1417.28 447.181 1417.08 447.725C1416.89 448.269 1416.81 448.847 1416.84 449.423V454.919H1414.86V438.679Z" fill="white"/>
<path d="M1435.54 454.279C1434.26 453.613 1433.21 452.592 1432.5 451.341C1431.77 449.991 1431.4 448.473 1431.44 446.939C1431.4 445.394 1431.77 443.865 1432.5 442.505C1433.21 441.26 1434.26 440.247 1435.54 439.588C1436.95 438.915 1438.49 438.566 1440.06 438.566C1441.62 438.566 1443.17 438.915 1444.58 439.588C1445.85 440.247 1446.91 441.26 1447.61 442.505C1448.35 443.865 1448.72 445.394 1448.68 446.939C1448.71 448.48 1448.35 450.005 1447.61 451.362C1446.91 452.612 1445.85 453.63 1444.58 454.29C1443.17 454.996 1441.61 455.348 1440.04 455.315C1438.47 455.346 1436.93 454.99 1435.54 454.279V454.279ZM1443.39 452.694C1444.34 452.166 1445.1 451.369 1445.59 450.406C1446.13 449.335 1446.4 448.151 1446.37 446.955C1446.4 445.755 1446.13 444.566 1445.59 443.493C1445.1 442.534 1444.33 441.742 1443.39 441.215C1442.36 440.684 1441.22 440.407 1440.06 440.407C1438.89 440.407 1437.75 440.684 1436.72 441.215C1435.78 441.743 1435.01 442.535 1434.51 443.493C1433.97 444.561 1433.7 445.743 1433.72 446.939C1433.69 448.131 1433.96 449.312 1434.49 450.379C1434.99 451.338 1435.76 452.133 1436.7 452.667C1437.73 453.202 1438.87 453.482 1440.03 453.482C1441.2 453.482 1442.34 453.202 1443.37 452.667L1443.39 452.694Z" fill="white"/>
<path d="M1458.66 445.309H1454.79V454.874H1452.81V445.309H1450.16V443.724H1452.81V442.36C1452.78 441.84 1452.85 441.318 1453.03 440.827C1453.21 440.335 1453.48 439.884 1453.83 439.501C1454.24 439.148 1454.7 438.877 1455.21 438.705C1455.72 438.533 1456.26 438.462 1456.79 438.497C1457.42 438.498 1458.04 438.565 1458.66 438.698V440.394C1458.09 440.288 1457.52 440.237 1456.95 440.241C1456.65 440.214 1456.35 440.246 1456.07 440.337C1455.79 440.428 1455.52 440.575 1455.3 440.769C1454.92 441.256 1454.74 441.868 1454.79 442.482V443.703H1458.66V445.309Z" fill="white"/>
<path d="M1317.82 446.767C1317.82 445.753 1317.42 444.779 1316.71 444.05C1316 443.322 1315.03 442.895 1314.01 442.862C1314.72 442.123 1315.11 441.139 1315.1 440.119C1315.09 439.099 1314.67 438.124 1313.95 437.403C1313.22 436.682 1312.24 436.271 1311.21 436.259C1310.19 436.246 1309.2 436.633 1308.46 437.337C1308.42 436.326 1307.99 435.369 1307.26 434.667C1306.52 433.965 1305.54 433.572 1304.53 433.572C1303.51 433.572 1302.53 433.965 1301.8 434.667C1301.07 435.369 1300.64 436.326 1300.6 437.337C1299.86 436.633 1298.87 436.246 1297.84 436.259C1296.81 436.271 1295.83 436.682 1295.11 437.403C1294.38 438.124 1293.97 439.099 1293.96 440.119C1293.94 441.139 1294.33 442.123 1295.04 442.862C1294.02 442.899 1293.06 443.327 1292.35 444.055C1291.65 444.783 1291.25 445.756 1291.25 446.767C1291.25 447.779 1291.65 448.751 1292.35 449.479C1293.06 450.208 1294.02 450.636 1295.04 450.673C1294.33 451.411 1293.94 452.396 1293.96 453.416C1293.97 454.435 1294.38 455.41 1295.11 456.131C1295.83 456.853 1296.81 457.263 1297.84 457.276C1298.87 457.288 1299.86 456.901 1300.6 456.198C1300.64 457.209 1301.07 458.166 1301.8 458.868C1302.53 459.57 1303.51 459.962 1304.53 459.962C1305.54 459.962 1306.52 459.57 1307.26 458.868C1307.99 458.166 1308.42 457.209 1308.46 456.198C1309.2 456.901 1310.19 457.288 1311.21 457.276C1312.24 457.263 1313.22 456.853 1313.95 456.131C1314.67 455.41 1315.09 454.435 1315.1 453.416C1315.11 452.396 1314.72 451.411 1314.01 450.673C1315.03 450.639 1316 450.213 1316.71 449.484C1317.42 448.756 1317.82 447.782 1317.82 446.767V446.767ZM1311.14 437.062C1311.56 437.06 1311.97 437.14 1312.35 437.298C1312.73 437.455 1313.08 437.687 1313.37 437.979C1313.96 438.566 1314.29 439.36 1314.29 440.189C1314.29 441.018 1313.96 441.813 1313.37 442.399C1313.1 442.678 1312.78 442.91 1312.43 443.086C1312.31 443.131 1312.2 443.179 1312.09 443.232C1311.37 443.47 1310.68 443.361 1309.96 443.248C1309.57 443.175 1309.18 443.132 1308.78 443.121C1308.56 443.119 1308.35 443.141 1308.14 443.187C1308.23 442.581 1308.21 441.962 1308.08 441.364C1307.96 440.65 1307.85 439.963 1308.09 439.25C1308.15 439.141 1308.2 439.025 1308.24 438.904C1308.42 438.559 1308.65 438.246 1308.93 437.976C1309.22 437.686 1309.57 437.456 1309.95 437.299C1310.32 437.142 1310.73 437.062 1311.14 437.062V437.062ZM1301.76 441.483C1301.83 441.133 1301.87 440.78 1301.89 440.426C1302.16 440.656 1302.44 440.873 1302.72 441.076C1303.52 441.644 1304.13 442.09 1304.13 443.1C1304.15 443.32 1304.1 443.541 1303.99 443.731C1303.88 443.921 1303.71 444.07 1303.5 444.157C1303.28 444.241 1303.04 444.261 1302.81 444.214C1302.59 444.167 1302.37 444.055 1302.21 443.892C1301.49 443.195 1301.6 442.442 1301.76 441.483ZM1307.16 440.426C1307.19 440.78 1307.23 441.133 1307.29 441.483C1307.44 442.439 1307.56 443.192 1306.85 443.906C1306.71 444.074 1306.51 444.194 1306.3 444.247C1306.08 444.3 1305.86 444.284 1305.65 444.202C1305.44 444.11 1305.26 443.958 1305.13 443.765C1305 443.572 1304.92 443.345 1304.92 443.113C1304.92 442.103 1305.54 441.657 1306.33 441.089C1306.62 440.887 1306.9 440.671 1307.16 440.441V440.426ZM1301.65 444.46C1301.82 444.602 1301.94 444.792 1301.99 445.006C1302.05 445.219 1302.03 445.443 1301.95 445.647C1301.86 445.861 1301.7 446.043 1301.51 446.172C1301.32 446.302 1301.09 446.373 1300.85 446.376C1299.84 446.376 1299.39 445.758 1298.82 444.976C1298.61 444.688 1298.4 444.411 1298.16 444.146C1298.52 444.124 1298.88 444.081 1299.23 444.019C1300.18 443.861 1300.93 443.75 1301.65 444.46ZM1300.85 447.158C1301.08 447.137 1301.3 447.187 1301.49 447.3C1301.68 447.413 1301.83 447.584 1301.92 447.787C1302 448.004 1302.02 448.241 1301.97 448.47C1301.93 448.698 1301.82 448.908 1301.65 449.074V449.074C1300.93 449.785 1300.18 449.674 1299.21 449.515C1298.86 449.453 1298.5 449.411 1298.15 449.389C1298.38 449.123 1298.6 448.846 1298.8 448.559C1299.39 447.777 1299.84 447.158 1300.85 447.158V447.158ZM1302.21 449.626C1302.35 449.458 1302.54 449.338 1302.75 449.285C1302.97 449.232 1303.2 449.248 1303.4 449.33C1303.62 449.422 1303.8 449.574 1303.93 449.767C1304.06 449.96 1304.13 450.187 1304.13 450.419C1304.13 451.428 1303.51 451.875 1302.72 452.443C1302.44 452.645 1302.16 452.862 1301.89 453.093C1301.87 452.739 1301.83 452.386 1301.76 452.036C1301.6 451.093 1301.49 450.34 1302.21 449.626V449.626ZM1307.29 452.052C1307.23 452.402 1307.19 452.755 1307.16 453.109C1306.9 452.878 1306.62 452.661 1306.33 452.459C1305.53 451.891 1304.92 451.444 1304.92 450.435C1304.9 450.215 1304.95 449.994 1305.06 449.804C1305.18 449.614 1305.35 449.465 1305.55 449.378C1305.77 449.294 1306.01 449.274 1306.24 449.321C1306.47 449.368 1306.68 449.479 1306.85 449.642C1307.56 450.34 1307.45 451.093 1307.29 452.052ZM1307.4 449.077C1307.23 448.936 1307.11 448.745 1307.06 448.532C1307.01 448.318 1307.02 448.094 1307.11 447.89C1307.2 447.677 1307.35 447.494 1307.54 447.365C1307.74 447.235 1307.97 447.165 1308.2 447.161C1309.22 447.161 1309.67 447.779 1310.24 448.561C1310.44 448.849 1310.66 449.126 1310.89 449.391C1310.53 449.414 1310.18 449.456 1309.83 449.518C1308.88 449.674 1308.12 449.785 1307.4 449.074V449.077ZM1308.2 446.379C1307.98 446.4 1307.76 446.35 1307.57 446.237C1307.37 446.124 1307.22 445.953 1307.14 445.75C1307.05 445.533 1307.03 445.296 1307.08 445.068C1307.13 444.839 1307.24 444.63 1307.4 444.463V444.463C1308.12 443.75 1308.88 443.861 1309.84 444.019C1310.19 444.081 1310.55 444.124 1310.91 444.146C1310.67 444.411 1310.46 444.688 1310.25 444.976C1309.67 445.758 1309.22 446.376 1308.2 446.376V446.379ZM1304.53 434.348C1305.36 434.35 1306.16 434.678 1306.75 435.261C1307.33 435.845 1307.67 436.637 1307.67 437.463C1307.68 437.851 1307.62 438.236 1307.5 438.605C1307.45 438.719 1307.4 438.835 1307.36 438.954C1307.02 439.633 1306.45 440.035 1305.86 440.457C1305.34 440.787 1304.89 441.209 1304.53 441.702C1304.17 441.209 1303.71 440.787 1303.2 440.457C1302.61 440.035 1302.04 439.625 1301.71 438.954C1301.67 438.835 1301.62 438.719 1301.56 438.605C1301.44 438.236 1301.39 437.851 1301.39 437.463C1301.4 436.639 1301.73 435.849 1302.32 435.265C1302.9 434.682 1303.7 434.352 1304.53 434.348V434.348ZM1295.69 437.979C1295.98 437.688 1296.32 437.458 1296.71 437.3C1297.09 437.143 1297.5 437.062 1297.91 437.062C1298.32 437.062 1298.73 437.143 1299.11 437.3C1299.49 437.458 1299.84 437.688 1300.13 437.979V437.979C1300.41 438.248 1300.65 438.561 1300.82 438.906C1300.87 439.028 1300.92 439.144 1300.97 439.252C1301.21 439.963 1301.1 440.65 1300.99 441.366C1300.85 441.965 1300.83 442.583 1300.93 443.19C1300.32 443.096 1299.69 443.117 1299.09 443.25C1298.37 443.364 1297.69 443.472 1296.97 443.234C1296.86 443.182 1296.74 443.134 1296.62 443.089C1296.27 442.912 1295.95 442.68 1295.68 442.402C1295.39 442.112 1295.16 441.767 1295 441.388C1294.84 441.009 1294.76 440.602 1294.76 440.192C1294.76 439.781 1294.84 439.375 1295 438.995C1295.16 438.616 1295.39 438.271 1295.68 437.981L1295.69 437.979ZM1292.03 446.767C1292.04 445.94 1292.37 445.148 1292.95 444.562C1293.54 443.977 1294.34 443.646 1295.17 443.641C1295.56 443.635 1295.95 443.692 1296.32 443.81C1296.43 443.864 1296.55 443.911 1296.67 443.953C1297.34 444.289 1297.75 444.852 1298.18 445.436C1298.51 445.949 1298.94 446.397 1299.43 446.757C1298.94 447.116 1298.51 447.564 1298.18 448.078C1297.75 448.662 1297.34 449.225 1296.67 449.56C1296.55 449.602 1296.43 449.65 1296.32 449.703C1295.95 449.822 1295.56 449.879 1295.17 449.872C1294.34 449.868 1293.55 449.54 1292.96 448.959C1292.37 448.378 1292.04 447.59 1292.03 446.767V446.767ZM1295.69 455.556C1295.39 455.266 1295.16 454.921 1295 454.542C1294.85 454.163 1294.76 453.756 1294.76 453.345C1294.76 452.935 1294.85 452.528 1295 452.149C1295.16 451.77 1295.39 451.425 1295.69 451.135V451.135C1295.96 450.857 1296.27 450.625 1296.61 450.448C1296.74 450.407 1296.85 450.358 1296.97 450.303C1297.27 450.206 1297.58 450.157 1297.9 450.16C1298.3 450.171 1298.7 450.214 1299.09 450.287C1299.69 450.421 1300.32 450.441 1300.93 450.348C1300.83 450.954 1300.85 451.572 1300.99 452.171C1301.1 452.884 1301.21 453.571 1300.97 454.285C1300.92 454.393 1300.87 454.509 1300.82 454.631C1300.65 454.976 1300.41 455.289 1300.13 455.558C1299.54 456.143 1298.74 456.471 1297.91 456.471C1297.08 456.47 1296.28 456.141 1295.69 455.556V455.556ZM1313.37 455.556C1312.78 456.141 1311.98 456.469 1311.14 456.469C1310.31 456.469 1309.51 456.141 1308.92 455.556C1308.64 455.287 1308.41 454.974 1308.23 454.628C1308.18 454.507 1308.14 454.391 1308.08 454.282C1307.84 453.571 1307.95 452.884 1308.07 452.168C1308.2 451.57 1308.22 450.951 1308.13 450.345C1308.74 450.439 1309.36 450.418 1309.96 450.284C1310.68 450.171 1311.37 450.062 1312.09 450.3C1312.2 450.353 1312.32 450.401 1312.44 450.445C1312.78 450.622 1313.1 450.854 1313.37 451.132C1313.96 451.72 1314.29 452.515 1314.29 453.345C1314.29 454.174 1313.96 454.969 1313.37 455.556V455.556ZM1313.89 449.893C1313.5 449.9 1313.11 449.843 1312.74 449.724C1312.62 449.671 1312.51 449.623 1312.39 449.581C1311.7 449.246 1311.3 448.683 1310.87 448.088C1310.54 447.575 1310.12 447.127 1309.62 446.767C1310.12 446.408 1310.54 445.96 1310.87 445.446C1311.3 444.862 1311.71 444.299 1312.39 443.964C1312.51 443.922 1312.62 443.874 1312.74 443.821C1313.11 443.702 1313.5 443.645 1313.89 443.652C1314.72 443.652 1315.52 443.981 1316.11 444.567C1316.7 445.154 1317.03 445.949 1317.03 446.778C1317.03 447.607 1316.7 448.402 1316.11 448.988C1315.52 449.574 1314.72 449.904 1313.89 449.904V449.893Z" fill="white"/>
<path d="M1334.25 551.753L1318.48 509.346H1310.12L1294.35 551.753H1302.18L1306 540.584H1322.6L1326.43 551.753H1334.25ZM1312.99 520.396C1313.47 519.022 1313.88 517.529 1314.24 515.856H1314.36C1314.72 517.529 1315.14 519.022 1315.62 520.396L1320.57 534.73H1308.03L1312.99 520.396ZM1360.61 552.47C1367.72 552.47 1372.67 548.408 1373.75 541.778L1367 540.405C1366.34 544.586 1364.13 546.796 1360.61 546.796C1356.01 546.796 1353.32 543.092 1353.32 536.642C1353.32 530.49 1356.01 526.787 1360.49 526.787C1364.01 526.787 1366.28 528.997 1366.82 533.058L1373.81 531.923C1372.85 525.114 1368.02 521.172 1360.67 521.172C1351.53 521.172 1345.92 527.085 1345.92 536.821C1345.92 546.318 1351.71 552.47 1360.61 552.47ZM1386.12 552.47C1390.36 552.47 1394 549.901 1395.38 546.198V551.753H1402.18V521.889H1395.02V538.434C1395.02 543.451 1392.39 546.736 1388.39 546.736C1384.98 546.736 1383.13 544.347 1383.13 539.987V521.889H1375.96V541.062C1375.96 548.05 1378.77 552.47 1386.12 552.47ZM1413.85 521.889H1407.16V551.753H1414.33V539.21C1414.33 535.925 1414.63 532.521 1417.08 530.191C1418.39 528.877 1420.42 528.041 1423.29 528.041C1423.59 528.041 1423.89 528.101 1424.25 528.101V521.232C1423.95 521.172 1423.65 521.172 1423.35 521.172C1418.57 521.172 1415.35 524.398 1413.85 529.116V521.889ZM1433.82 552.47C1438.6 552.47 1442.36 550.26 1443.79 546.616C1443.85 548.468 1444.03 550.26 1444.27 551.753H1451.44C1450.84 549.662 1450.54 546.557 1450.54 542.495V533.596C1450.54 524.935 1446.6 521.172 1437.76 521.172C1430.06 521.172 1425.04 525.114 1424.56 531.505H1431.91C1432.15 528.101 1434.24 526.249 1437.76 526.249C1441.59 526.249 1443.32 528.16 1443.32 532.64V533.416L1436.99 534.193C1432.27 534.85 1429.4 535.626 1427.25 536.881C1424.86 538.374 1423.61 540.763 1423.61 543.63C1423.61 548.946 1427.67 552.47 1433.82 552.47ZM1436.09 547.393C1432.92 547.393 1431.01 545.78 1431.01 543.272C1431.01 540.703 1432.81 539.27 1436.75 538.613L1443.5 537.597V539.509C1443.5 544.227 1440.51 547.393 1436.09 547.393ZM1456.81 527.085V542.495C1456.81 548.528 1459.2 552.29 1466.37 552.29C1468.22 552.29 1469.53 552.111 1471.26 551.753V545.72C1470.31 545.9 1469.53 546.079 1468.34 546.079C1465.35 546.079 1463.98 544.526 1463.98 541.36V527.085H1471.26V521.889H1463.98V511.496L1456.81 514.363V521.889H1451.43V527.085H1456.81ZM1499.65 535.328C1499.65 526.189 1494.69 521.172 1486.03 521.172C1477.13 521.172 1471.69 527.264 1471.69 537.12C1471.69 546.915 1477.19 552.47 1486.33 552.47C1492.48 552.47 1497.14 549.603 1499.41 544.406L1493.85 541.898C1492.54 545.123 1489.97 546.855 1486.63 546.855C1481.91 546.855 1478.74 543.63 1478.68 538.613H1499.65V535.328ZM1492.54 533.894H1478.68C1478.8 528.937 1481.37 525.95 1485.85 525.95C1490.15 525.95 1492.6 528.519 1492.54 533.416V533.894ZM1512.84 552.47C1517.38 552.47 1520.78 550.2 1522.4 546.377V551.753H1529.21V508.45H1522.04V526.13C1520.31 522.785 1517.32 521.172 1513.44 521.172C1505.97 521.172 1500.84 527.503 1500.84 536.881C1500.84 546.198 1505.67 552.47 1512.84 552.47ZM1515.35 546.975C1510.93 546.975 1508.3 543.152 1508.3 536.761C1508.3 530.37 1510.87 526.667 1515.29 526.667C1519.53 526.667 1522.16 530.072 1522.16 535.925V537.836C1522.16 543.451 1519.53 546.975 1515.35 546.975ZM1558.95 552.47C1566.06 552.47 1571.01 548.408 1572.09 541.778L1565.34 540.405C1564.68 544.586 1562.47 546.796 1558.95 546.796C1554.35 546.796 1551.66 543.092 1551.66 536.642C1551.66 530.49 1554.35 526.787 1558.83 526.787C1562.35 526.787 1564.62 528.997 1565.16 533.058L1572.15 531.923C1571.19 525.114 1566.36 521.172 1559.01 521.172C1549.87 521.172 1544.26 527.085 1544.26 536.821C1544.26 546.318 1550.05 552.47 1558.95 552.47ZM1587.74 552.47C1596.34 552.47 1602.44 546.796 1602.44 536.761C1602.44 526.787 1596.34 521.172 1587.74 521.172C1579.14 521.172 1573.11 526.787 1573.11 536.761C1573.11 546.796 1579.14 552.47 1587.74 552.47ZM1587.74 547.034C1583.14 547.034 1580.46 543.57 1580.46 536.761C1580.46 529.952 1583.14 526.607 1587.74 526.607C1592.34 526.607 1595.09 529.952 1595.09 536.761C1595.09 543.57 1592.34 547.034 1587.74 547.034ZM1605.62 508.45V551.753H1612.79V508.45H1605.62ZM1617.74 508.45V551.753H1624.9V508.45H1617.74ZM1656.01 535.328C1656.01 526.189 1651.05 521.172 1642.39 521.172C1633.49 521.172 1628.06 527.264 1628.06 537.12C1628.06 546.915 1633.55 552.47 1642.69 552.47C1648.84 552.47 1653.5 549.603 1655.77 544.406L1650.22 541.898C1648.9 545.123 1646.33 546.855 1642.99 546.855C1638.27 546.855 1635.11 543.63 1635.05 538.613H1656.01V535.328ZM1648.9 533.894H1635.05C1635.17 528.937 1637.73 525.95 1642.21 525.95C1646.51 525.95 1648.96 528.519 1648.9 533.416V533.894ZM1672.07 552.47C1679.18 552.47 1684.14 548.408 1685.21 541.778L1678.46 540.405C1677.81 544.586 1675.6 546.796 1672.07 546.796C1667.47 546.796 1664.78 543.092 1664.78 536.642C1664.78 530.49 1667.47 526.787 1671.95 526.787C1675.48 526.787 1677.75 528.997 1678.28 533.058L1685.27 531.923C1684.32 525.114 1679.48 521.172 1672.13 521.172C1662.99 521.172 1657.38 527.085 1657.38 536.821C1657.38 546.318 1663.17 552.47 1672.07 552.47ZM1689.82 527.085V542.495C1689.82 548.528 1692.21 552.29 1699.37 552.29C1701.23 552.29 1702.54 552.111 1704.27 551.753V545.72C1703.32 545.9 1702.54 546.079 1701.35 546.079C1698.36 546.079 1696.99 544.526 1696.99 541.36V527.085H1704.27V521.889H1696.99V511.496L1689.82 514.363V521.889H1684.44V527.085H1689.82ZM1714.25 516.932V509.466H1706.49V516.932H1714.25ZM1713.95 551.753V521.889H1706.79V551.753H1713.95ZM1731.74 552.47C1740.34 552.47 1746.43 546.796 1746.43 536.761C1746.43 526.787 1740.34 521.172 1731.74 521.172C1723.14 521.172 1717.11 526.787 1717.11 536.761C1717.11 546.796 1723.14 552.47 1731.74 552.47ZM1731.74 547.034C1727.14 547.034 1724.45 543.57 1724.45 536.761C1724.45 529.952 1727.14 526.607 1731.74 526.607C1736.34 526.607 1739.09 529.952 1739.09 536.761C1739.09 543.57 1736.34 547.034 1731.74 547.034ZM1756.79 551.753V535.925C1756.79 530.251 1759.3 526.906 1763.48 526.906C1767.24 526.906 1769.09 529.236 1769.09 533.954V551.753H1776.26V533.237C1776.26 525.234 1772.91 521.172 1766.4 521.172C1761.75 521.172 1758.46 523.322 1756.49 527.683V521.889H1749.62V551.753H1756.79ZM1805.35 552.47C1813.95 552.47 1820.05 546.796 1820.05 536.761C1820.05 526.787 1813.95 521.172 1805.35 521.172C1796.75 521.172 1790.72 526.787 1790.72 536.761C1790.72 546.796 1796.75 552.47 1805.35 552.47ZM1805.35 547.034C1800.76 547.034 1798.07 543.57 1798.07 536.761C1798.07 529.952 1800.76 526.607 1805.35 526.607C1809.95 526.607 1812.7 529.952 1812.7 536.761C1812.7 543.57 1809.95 547.034 1805.35 547.034ZM1832.32 521.889V518.544C1832.32 515.379 1833.63 513.826 1836.5 513.826C1837.39 513.826 1838.47 513.945 1839.54 514.124V508.57C1838.23 508.271 1836.8 508.092 1835.3 508.092C1828.91 508.092 1825.15 511.855 1825.15 518.066V521.889H1820.01V527.085H1825.15V551.753H1832.32V527.085H1839.54V521.889H1832.32ZM1304.45 583.889H1297.76V613.753H1304.93V601.21C1304.93 597.925 1305.22 594.521 1307.67 592.191C1308.99 590.877 1311.02 590.041 1313.88 590.041C1314.18 590.041 1314.48 590.101 1314.84 590.101V583.232C1314.54 583.172 1314.24 583.172 1313.94 583.172C1309.17 583.172 1305.94 586.398 1304.45 591.116V583.889ZM1342.39 597.328C1342.39 588.189 1337.43 583.172 1328.77 583.172C1319.87 583.172 1314.44 589.264 1314.44 599.12C1314.44 608.915 1319.93 614.47 1329.07 614.47C1335.22 614.47 1339.88 611.603 1342.15 606.406L1336.6 603.898C1335.28 607.123 1332.71 608.855 1329.37 608.855C1324.65 608.855 1321.49 605.63 1321.43 600.613H1342.39V597.328ZM1335.28 595.894H1321.43C1321.55 590.937 1324.11 587.95 1328.59 587.95C1332.89 587.95 1335.34 590.519 1335.28 595.416V595.894ZM1356.54 614.47C1364.31 614.47 1368.79 610.647 1368.79 605.033C1368.79 600.314 1366.28 597.447 1360.54 596.432L1354.69 595.357C1352.06 594.879 1350.69 593.983 1350.69 591.952C1350.69 589.623 1352.6 588.369 1355.95 588.369C1359.89 588.369 1362.52 590.041 1363.95 592.729L1368.91 590.041C1367.47 585.741 1362.69 583.172 1356.3 583.172C1348.72 583.172 1344.12 586.995 1344.12 592.37C1344.12 597.149 1347.11 600.075 1352.66 601.091L1357.98 602.046C1360.96 602.524 1362.28 603.36 1362.28 605.51C1362.28 607.661 1360.36 609.214 1356.66 609.214C1352.42 609.214 1349.43 607.302 1348.12 603.958L1342.8 606.347C1344.66 611.603 1349.73 614.47 1356.54 614.47ZM1384.62 614.47C1393.22 614.47 1399.31 608.796 1399.31 598.761C1399.31 588.787 1393.22 583.172 1384.62 583.172C1376.02 583.172 1369.99 588.787 1369.99 598.761C1369.99 608.796 1376.02 614.47 1384.62 614.47ZM1384.62 609.034C1380.02 609.034 1377.33 605.57 1377.33 598.761C1377.33 591.952 1380.02 588.607 1384.62 588.607C1389.22 588.607 1391.97 591.952 1391.97 598.761C1391.97 605.57 1389.22 609.034 1384.62 609.034ZM1412.06 614.47C1416.3 614.47 1419.94 611.901 1421.31 608.198V613.753H1428.12V583.889H1420.95V600.434C1420.95 605.451 1418.33 608.736 1414.32 608.736C1410.92 608.736 1409.07 606.347 1409.07 601.987V583.889H1401.9V603.062C1401.9 610.05 1404.71 614.47 1412.06 614.47ZM1439.79 583.889H1433.1V613.753H1440.27V601.21C1440.27 597.925 1440.57 594.521 1443.02 592.191C1444.33 590.877 1446.36 590.041 1449.23 590.041C1449.53 590.041 1449.83 590.101 1450.18 590.101V583.232C1449.89 583.172 1449.59 583.172 1449.29 583.172C1444.51 583.172 1441.29 586.398 1439.79 591.116V583.889ZM1464.47 614.47C1471.58 614.47 1476.54 610.408 1477.61 603.778L1470.87 602.405C1470.21 606.586 1468 608.796 1464.47 608.796C1459.88 608.796 1457.19 605.092 1457.19 598.642C1457.19 592.49 1459.88 588.787 1464.36 588.787C1467.88 588.787 1470.15 590.997 1470.69 595.058L1477.67 593.923C1476.72 587.114 1471.88 583.172 1464.53 583.172C1455.4 583.172 1449.78 589.085 1449.78 598.821C1449.78 608.318 1455.58 614.47 1464.47 614.47ZM1506.59 597.328C1506.59 588.189 1501.63 583.172 1492.97 583.172C1484.07 583.172 1478.64 589.264 1478.64 599.12C1478.64 608.915 1484.13 614.47 1493.27 614.47C1499.42 614.47 1504.08 611.603 1506.35 606.406L1500.79 603.898C1499.48 607.123 1496.91 608.855 1493.57 608.855C1488.85 608.855 1485.68 605.63 1485.62 600.613H1506.59V597.328ZM1499.48 595.894H1485.62C1485.74 590.937 1488.31 587.95 1492.79 587.95C1497.09 587.95 1499.54 590.519 1499.48 595.416V595.894ZM1520.74 614.47C1528.51 614.47 1532.98 610.647 1532.98 605.033C1532.98 600.314 1530.48 597.447 1524.74 596.432L1518.89 595.357C1516.26 594.879 1514.89 593.983 1514.89 591.952C1514.89 589.623 1516.8 588.369 1520.14 588.369C1524.09 588.369 1526.71 590.041 1528.15 592.729L1533.1 590.041C1531.67 585.741 1526.89 583.172 1520.5 583.172C1512.92 583.172 1508.32 586.995 1508.32 592.37C1508.32 597.149 1511.3 600.075 1516.86 601.091L1522.17 602.046C1525.16 602.524 1526.47 603.36 1526.47 605.51C1526.47 607.661 1524.56 609.214 1520.86 609.214C1516.62 609.214 1513.63 607.302 1512.32 603.958L1507 606.347C1508.85 611.603 1513.93 614.47 1520.74 614.47ZM1557 583.889V580.544C1557 577.379 1558.31 575.826 1561.18 575.826C1562.08 575.826 1563.15 575.945 1564.23 576.124V570.57C1562.91 570.271 1561.48 570.092 1559.99 570.092C1553.59 570.092 1549.83 573.855 1549.83 580.066V583.889H1544.7V589.085H1549.83V613.753H1557V589.085H1564.23V583.889H1557ZM1578.18 614.47C1586.78 614.47 1592.87 608.796 1592.87 598.761C1592.87 588.787 1586.78 583.172 1578.18 583.172C1569.58 583.172 1563.54 588.787 1563.54 598.761C1563.54 608.796 1569.58 614.47 1578.18 614.47ZM1578.18 609.034C1573.58 609.034 1570.89 605.57 1570.89 598.761C1570.89 591.952 1573.58 588.607 1578.18 588.607C1582.78 588.607 1585.52 591.952 1585.52 598.761C1585.52 605.57 1582.78 609.034 1578.18 609.034ZM1602.75 583.889H1596.06V613.753H1603.22V601.21C1603.22 597.925 1603.52 594.521 1605.97 592.191C1607.29 590.877 1609.32 590.041 1612.18 590.041C1612.48 590.041 1612.78 590.101 1613.14 590.101V583.232C1612.84 583.172 1612.54 583.172 1612.24 583.172C1607.46 583.172 1604.24 586.398 1602.75 591.116V583.889ZM1639.6 614.47C1646.71 614.47 1651.67 610.408 1652.74 603.778L1645.99 602.405C1645.34 606.586 1643.13 608.796 1639.6 608.796C1635 608.796 1632.31 605.092 1632.31 598.642C1632.31 592.49 1635 588.787 1639.48 588.787C1643.01 588.787 1645.28 590.997 1645.81 595.058L1652.8 593.923C1651.85 587.114 1647.01 583.172 1639.66 583.172C1630.52 583.172 1624.91 589.085 1624.91 598.821C1624.91 608.318 1630.7 614.47 1639.6 614.47ZM1665.11 614.47C1669.35 614.47 1672.99 611.901 1674.37 608.198V613.753H1681.18V583.889H1674.01V600.434C1674.01 605.451 1671.38 608.736 1667.38 608.736C1663.98 608.736 1662.12 606.347 1662.12 601.987V583.889H1654.96V603.062C1654.96 610.05 1657.76 614.47 1665.11 614.47ZM1692.85 583.889H1686.16V613.753H1693.32V601.21C1693.32 597.925 1693.62 594.521 1696.07 592.191C1697.39 590.877 1699.42 590.041 1702.28 590.041C1702.58 590.041 1702.88 590.101 1703.24 590.101V583.232C1702.94 583.172 1702.64 583.172 1702.34 583.172C1697.57 583.172 1694.34 586.398 1692.85 591.116V583.889ZM1712.39 578.932V571.466H1704.62V578.932H1712.39ZM1712.09 613.753V583.889H1704.92V613.753H1712.09ZM1729.88 614.47C1738.48 614.47 1744.57 608.796 1744.57 598.761C1744.57 588.787 1738.48 583.172 1729.88 583.172C1721.27 583.172 1715.24 588.787 1715.24 598.761C1715.24 608.796 1721.27 614.47 1729.88 614.47ZM1729.88 609.034C1725.28 609.034 1722.59 605.57 1722.59 598.761C1722.59 591.952 1725.28 588.607 1729.88 588.607C1734.47 588.607 1737.22 591.952 1737.22 598.761C1737.22 605.57 1734.47 609.034 1729.88 609.034ZM1757.31 614.47C1761.55 614.47 1765.19 611.901 1766.57 608.198V613.753H1773.38V583.889H1766.21V600.434C1766.21 605.451 1763.58 608.736 1759.58 608.736C1756.18 608.736 1754.32 606.347 1754.32 601.987V583.889H1747.16V603.062C1747.16 610.05 1749.96 614.47 1757.31 614.47ZM1789.47 614.47C1797.23 614.47 1801.71 610.647 1801.71 605.033C1801.71 600.314 1799.2 597.447 1793.47 596.432L1787.62 595.357C1784.99 594.879 1783.61 593.983 1783.61 591.952C1783.61 589.623 1785.52 588.369 1788.87 588.369C1792.81 588.369 1795.44 590.041 1796.87 592.729L1801.83 590.041C1800.4 585.741 1795.62 583.172 1789.23 583.172C1781.64 583.172 1777.04 586.995 1777.04 592.37C1777.04 597.149 1780.03 600.075 1785.58 601.091L1790.9 602.046C1793.89 602.524 1795.2 603.36 1795.2 605.51C1795.2 607.661 1793.29 609.214 1789.59 609.214C1785.35 609.214 1782.36 607.302 1781.05 603.958L1775.73 606.347C1777.58 611.603 1782.66 614.47 1789.47 614.47ZM1826.44 614.47C1830.98 614.47 1834.39 612.2 1836 608.377V613.753H1842.81V570.45H1835.64V588.13C1833.91 584.785 1830.92 583.172 1827.04 583.172C1819.57 583.172 1814.44 589.503 1814.44 598.881C1814.44 608.198 1819.28 614.47 1826.44 614.47ZM1828.95 608.975C1824.53 608.975 1821.9 605.152 1821.9 598.761C1821.9 592.37 1824.47 588.667 1828.89 588.667C1833.13 588.667 1835.76 592.072 1835.76 597.925V599.836C1835.76 605.451 1833.13 608.975 1828.95 608.975ZM1873.93 597.328C1873.93 588.189 1868.97 583.172 1860.31 583.172C1851.41 583.172 1845.98 589.264 1845.98 599.12C1845.98 608.915 1851.47 614.47 1860.61 614.47C1866.76 614.47 1871.42 611.603 1873.69 606.406L1868.14 603.898C1866.82 607.123 1864.26 608.855 1860.91 608.855C1856.19 608.855 1853.03 605.63 1852.97 600.613H1873.93V597.328ZM1866.82 595.894H1852.97C1853.09 590.937 1855.65 587.95 1860.13 587.95C1864.43 587.95 1866.88 590.519 1866.82 595.416V595.894ZM1888.08 614.47C1895.85 614.47 1900.33 610.647 1900.33 605.033C1900.33 600.314 1897.82 597.447 1892.09 596.432L1886.23 595.357C1883.6 594.879 1882.23 593.983 1882.23 591.952C1882.23 589.623 1884.14 588.369 1887.49 588.369C1891.43 588.369 1894.06 590.041 1895.49 592.729L1900.45 590.041C1899.01 585.741 1894.24 583.172 1887.84 583.172C1880.26 583.172 1875.66 586.995 1875.66 592.37C1875.66 597.149 1878.65 600.075 1884.2 601.091L1889.52 602.046C1892.5 602.524 1893.82 603.36 1893.82 605.51C1893.82 607.661 1891.91 609.214 1888.2 609.214C1883.96 609.214 1880.98 607.302 1879.66 603.958L1874.35 606.347C1876.2 611.603 1881.27 614.47 1888.08 614.47ZM1910.61 578.932V571.466H1902.85V578.932H1910.61ZM1910.31 613.753V583.889H1903.14V613.753H1910.31ZM1940.28 584.128C1941.18 584.128 1941.9 584.247 1942.67 584.427V579.051C1942.14 578.932 1941.6 578.872 1941.06 578.872C1936.76 578.872 1934.13 581.082 1933.24 584.367C1931.44 583.59 1929.35 583.172 1926.91 583.172C1919.26 583.172 1914.66 587.293 1914.66 593.207C1914.66 596.312 1915.97 599 1918.3 600.852C1915.38 601.987 1913.59 604.077 1913.59 607.183C1913.59 609.572 1914.72 611.483 1917.35 612.558C1914.12 613.633 1912.39 615.784 1912.39 618.412C1912.39 622.652 1916.15 626.117 1926.37 626.117C1937.18 626.117 1942.31 622.115 1942.31 615.963C1942.31 610.408 1938.79 607.362 1931.74 607.362H1923.98C1920.69 607.362 1919.44 606.227 1919.44 604.615C1919.44 603.599 1920.04 602.823 1920.93 602.345C1922.6 603.062 1924.64 603.42 1926.91 603.42C1934.55 603.42 1939.15 599.12 1939.15 593.207C1939.15 590.28 1938.01 587.831 1935.98 586.099C1936.88 584.785 1938.31 584.128 1940.28 584.128ZM1926.91 599.06C1923.56 599.06 1921.41 596.611 1921.41 593.207C1921.41 589.862 1923.56 587.532 1926.91 587.532C1930.25 587.532 1932.4 589.862 1932.4 593.266C1932.4 596.611 1930.25 599.06 1926.91 599.06ZM1930.67 613.514C1934.13 613.514 1935.86 614.768 1935.86 617.157C1935.86 619.606 1933.71 621.458 1926.91 621.458C1921.77 621.458 1918.3 620.263 1918.3 617.098C1918.3 615.664 1918.96 614.29 1920.45 613.335C1921.23 613.454 1922.01 613.514 1922.9 613.514H1930.67ZM1950.99 613.753V597.925C1950.99 592.251 1953.5 588.906 1957.68 588.906C1961.44 588.906 1963.29 591.236 1963.29 595.954V613.753H1970.46V595.237C1970.46 587.234 1967.11 583.172 1960.6 583.172C1955.94 583.172 1952.66 585.322 1950.69 589.683V583.889H1943.82V613.753H1950.99ZM2000.99 597.328C2000.99 588.189 1996.04 583.172 1987.37 583.172C1978.48 583.172 1973.04 589.264 1973.04 599.12C1973.04 608.915 1978.54 614.47 1987.67 614.47C1993.83 614.47 1998.48 611.603 2000.75 606.406L1995.2 603.898C1993.89 607.123 1991.32 608.855 1987.97 608.855C1983.25 608.855 1980.09 605.63 1980.03 600.613H2000.99V597.328ZM1993.89 595.894H1980.03C1980.15 590.937 1982.72 587.95 1987.2 587.95C1991.5 587.95 1993.94 590.519 1993.89 595.416V595.894ZM2010.84 583.889H2004.15V613.753H2011.32V601.21C2011.32 597.925 2011.62 594.521 2014.07 592.191C2015.38 590.877 2017.41 590.041 2020.28 590.041C2020.58 590.041 2020.88 590.101 2021.23 590.101V583.232C2020.94 583.172 2020.64 583.172 2020.34 583.172C2015.56 583.172 2012.34 586.398 2010.84 591.116V583.889ZM2033.73 614.47C2041.5 614.47 2045.98 610.647 2045.98 605.033C2045.98 600.314 2043.47 597.447 2037.73 596.432L2031.88 595.357C2029.25 594.879 2027.88 593.983 2027.88 591.952C2027.88 589.623 2029.79 588.369 2033.14 588.369C2037.08 588.369 2039.71 590.041 2041.14 592.729L2046.1 590.041C2044.66 585.741 2039.88 583.172 2033.49 583.172C2025.91 583.172 2021.31 586.995 2021.31 592.37C2021.31 597.149 2024.3 600.075 2029.85 601.091L2035.17 602.046C2038.15 602.524 2039.47 603.36 2039.47 605.51C2039.47 607.661 2037.56 609.214 2033.85 609.214C2029.61 609.214 2026.63 607.302 2025.31 603.958L2020 606.347C2021.85 611.603 2026.92 614.47 2033.73 614.47ZM2047.91 605.451V613.753H2056.39V605.451H2047.91Z" fill="white"/>
</svg>
